<svg width="40" height="40" viewBox="0 0 40 40" fill="none" xmlns="http://www.w3.org/2000/svg">
<g id="twemoji:waving-hand" clipPath="url(#clip0_1294_9220)">
<path id="Vector" d="M5.40101 10.1633C6.44546 9.43333 8.0199 9.57333 8.95768 10.3478L7.88213 8.78444C7.01657 7.54999 7.32657 6.21444 8.56213 5.34777C9.79768 4.48444 13.2988 6.80555 13.2988 6.80555C12.4255 5.55888 12.5888 3.97888 13.8355 3.10444C14.4348 2.68564 15.1759 2.5219 15.896 2.6492C16.616 2.77649 17.256 3.18441 17.6755 3.78333L29.2532 20.1389L27.7777 34.4444L15.4632 29.9533L4.72212 14.0278C4.51268 13.7296 4.36408 13.393 4.28484 13.0373C4.2056 12.6816 4.19726 12.3137 4.26032 11.9548C4.32337 11.5959 4.45658 11.2529 4.65231 10.9455C4.84804 10.6381 5.10246 10.3723 5.40101 10.1633Z" fill="#EF9645"/>
<path id="Vector_2" d="M2.99435 19.2622C2.99435 19.2622 1.73658 17.4289 3.57102 16.1722C5.40324 14.9155 6.65991 16.7478 6.65991 16.7478L12.4944 25.2567C12.6955 24.9211 12.9155 24.59 13.161 24.2633L5.06324 12.4555C5.06324 12.4555 3.80658 10.6233 5.63991 9.36666C7.47213 8.10999 8.7288 9.94221 8.7288 9.94221L16.3455 21.05C16.6288 20.8189 16.9188 20.5867 17.2177 20.3589L8.38769 7.47999C8.38769 7.47999 7.13102 5.64777 8.96435 4.3911C10.7966 3.13443 12.0532 4.96665 12.0532 4.96665L20.8832 17.8433C21.2077 17.6444 21.5288 17.4722 21.851 17.29L13.5977 5.25443C13.5977 5.25443 12.341 3.42221 14.1732 2.16554C16.0055 0.908876 17.2621 2.7411 17.2621 2.7411L25.9888 15.4678L27.3155 17.4033C21.8177 21.1744 21.2944 28.2689 24.4355 32.85C25.0632 33.7667 25.9799 33.1389 25.9799 33.1389C22.2099 27.64 23.361 21.4611 28.8599 17.6911L27.2388 9.57777C27.2388 9.57777 26.6332 7.43999 28.7699 6.83332C30.9077 6.22777 31.5144 8.36554 31.5144 8.36554L33.3866 13.9255C34.1288 16.13 34.9188 18.3267 35.9644 20.4044C38.9166 26.2711 37.1532 33.5622 31.5866 37.3811C25.5144 41.5444 17.2132 39.9967 13.0488 33.9255L2.99435 19.2622Z" fill="#FFC83D"/>
<g id="Group">
<path id="Vector_3" d="M13.3333 35.6023C8.88887 35.6023 4.39776 31.1112 4.39776 26.6667C4.39776 26.0523 3.94776 25.5556 3.33331 25.5556C2.71887 25.5556 2.17554 26.0523 2.17554 26.6667C2.17554 33.3334 6.66665 37.8245 13.3333 37.8245C13.9478 37.8245 14.4444 37.2812 14.4444 36.6667C14.4444 36.0523 13.9478 35.6023 13.3333 35.6023Z" fill="#5DADEC"/>
<path id="Vector_4" d="M7.77778 37.7778C4.44444 37.7778 2.22222 35.5556 2.22222 32.2222C2.22222 31.9275 2.10516 31.6449 1.89679 31.4366C1.68841 31.2282 1.4058 31.1111 1.11111 31.1111C0.816426 31.1111 0.533811 31.2282 0.325437 31.4366C0.117063 31.6449 0 31.9275 0 32.2222C0 36.6667 3.33333 40 7.77778 40C8.07246 40 8.35508 39.8829 8.56345 39.6746C8.77183 39.4662 8.88889 39.1836 8.88889 38.8889C8.88889 38.5942 8.77183 38.3116 8.56345 38.1032C8.35508 37.8948 8.07246 37.7778 7.77778 37.7778ZM26.6667 2.22223C26.372 2.22223 26.0894 2.33929 25.881 2.54767C25.6726 2.75604 25.5556 3.03866 25.5556 3.33334C25.5556 3.62803 25.6726 3.91064 25.881 4.11901C26.0894 4.32739 26.372 4.44445 26.6667 4.44445C31.1111 4.44445 35.5556 8.43223 35.5556 13.3333C35.5556 13.628 35.6726 13.9106 35.881 14.119C36.0894 14.3274 36.372 14.4445 36.6667 14.4445C36.9614 14.4445 37.244 14.3274 37.4523 14.119C37.6607 13.9106 37.7778 13.628 37.7778 13.3333C37.7778 7.20667 33.3333 2.22223 26.6667 2.22223Z" fill="#5DADEC"/>
<path id="Vector_5" d="M32.2222 0.0466919C31.6089 0.0466919 31.1111 0.497803 31.1111 1.11114C31.1111 1.72447 31.6089 2.26891 32.2222 2.26891C35.5555 2.26891 37.7311 4.74114 37.7311 7.7778C37.7311 8.39114 38.2744 8.88891 38.8889 8.88891C39.5033 8.88891 39.9533 8.39114 39.9533 7.7778C39.9533 3.51447 36.6666 0.0466919 32.2222 0.0466919Z" fill="#5DADEC"/>
</g>
</g>
<defs>
<clipPath id="clip0_1294_9220">
<rect width="40" height="40" fill="white"/>
</clipPath>
</defs>
</svg>
